<svg id="图层_1" data-name="图层 1" xmlns="http://www.w3.org/2000/svg" xmlns:xlink="http://www.w3.org/1999/xlink" viewBox="0 0 273.14 93.28"><defs><style>.cls-1,.cls-2{fill:#515151;}.cls-1{fill-rule:evenodd;}.cls-3{fill:url(#未命名的渐变_235);}.cls-4{fill:#e6882b;}</style><linearGradient id="未命名的渐变_235" x1="16.5" y1="17.21" x2="90.34" y2="91.05" gradientUnits="userSpaceOnUse"><stop offset="0" stop-color="#ec8b26"/><stop offset="0.69" stop-color="#ec8b26"/><stop offset="0.89" stop-color="#3d7d3f"/><stop offset="1" stop-color="#3d7d3f"/></linearGradient></defs><title>创新工中文版logo</title><path class="cls-1" d="M263.81,39.67a21.91,21.91,0,0,1-2.07,8A21.17,21.17,0,0,1,255.16,55a.83.83,0,0,0-.17,1.2l1.32,1.66a.83.83,0,0,0,1.12.18c1.73-1.16,6.44-4.68,8.4-9.79a30,30,0,0,0,2-8.58h2.64s-.36,11.62-.5,13.09c-.22,2.26-.72,2.66-3.37,2.66h-1.75a.84.84,0,0,0-.82,1l.47,2.39a1.31,1.31,0,0,0,1.23,1h1.56c5,0,6.77-1.4,7.09-5.85.08-1,.24-3.66.46-7.59l0-.77c.11-1.91.22-4,.33-6l.11-2,0-.69a1.25,1.25,0,0,0-1.25-1.32h-12a.42.42,0,0,1-.24-.76l7.61-5.48a1.68,1.68,0,0,0,.63-1.82l-.76-2.63a.84.84,0,0,0-.81-.61H253.29a.84.84,0,0,0-.84.84v2.69a.84.84,0,0,0,.84.84h9a.42.42,0,0,1,.24.76l-8.36,5.77a.84.84,0,0,0-.29,1l1.29,2.93a.84.84,0,0,0,.77.5H257A11.15,11.15,0,0,1,255.06,45a20.51,20.51,0,0,1-4.54,4.45.83.83,0,0,0-.18,1.17l1,1.38a1.26,1.26,0,0,0,1.79.24,29.11,29.11,0,0,0,5.4-5.42,14.84,14.84,0,0,0,2.52-7.18Z" transform="translate(-2.2 -2.5)"/><path class="cls-1" d="M247.4,36.68a.39.39,0,0,1,.39-.39h2.53a.79.79,0,0,0,.79-.79V32.7a.78.78,0,0,0-.79-.78h-2.52a.4.4,0,0,1-.4-.4V23.06a.84.84,0,0,0-.84-.84h-2.81a.84.84,0,0,0-.84.84v8.46a.39.39,0,0,1-.38.4h-3.06a.78.78,0,0,0-.78.78v2.8a.78.78,0,0,0,.78.78h3.06a.38.38,0,0,1,.38.38V48.73a.84.84,0,0,1-.52.78l-4,1.63A.84.84,0,0,0,238,52.2l.72,1.88a1.68,1.68,0,0,0,2.19,1l10-4.06-1.28-3.12a.84.84,0,0,0-1.07-.47l-.57.21a.42.42,0,0,1-.57-.39Z" transform="translate(-2.2 -2.5)"/><path class="cls-1" d="M217.78,51.82A.78.78,0,0,1,217,51V32.59a.78.78,0,0,1,.78-.78h11.38a.78.78,0,0,0,.78-.78V27.79a.78.78,0,0,0-.78-.78H199.94a.78.78,0,0,0-.78.78V31a.78.78,0,0,0,.78.78h11a.78.78,0,0,1,.78.78V51a.78.78,0,0,1-.78.78H197.87a.78.78,0,0,0-.78.78v3.09a.78.78,0,0,0,.78.78h33.45a.78.78,0,0,0,.78-.78V52.6a.78.78,0,0,0-.78-.78Z" transform="translate(-2.2 -2.5)"/><path class="cls-1" d="M176.18,59.78a.84.84,0,0,0,1-.55,53.58,53.58,0,0,0,3-14.83c0-1.1,0-2.19.05-3.29a.4.4,0,0,1,.4-.39h3a.39.39,0,0,1,.39.4V59.75a.84.84,0,0,0,.84.84h3a.84.84,0,0,0,.84-.84V41.12a.4.4,0,0,1,.39-.4h2.52a.84.84,0,0,0,.84-.84V37a.78.78,0,0,0-.77-.78h-11a.39.39,0,0,1-.38-.4V30.24a.44.44,0,0,1,.31-.4s3.07-.5,4.09-.7c1.38-.27,5.48-1.23,5.48-1.23a.84.84,0,0,0,.6-1.16l-1-2.2a.84.84,0,0,0-.93-.48s-4.63,1.18-6.18,1.49-6,1-6,1a1.33,1.33,0,0,0-.92,1.21V41a54.56,54.56,0,0,1-2.88,16.91.84.84,0,0,0,.56,1.06Z" transform="translate(-2.2 -2.5)"/><rect class="cls-2" x="133.91" y="22.34" width="4.4" height="23.46" rx="0.84" ry="0.84"/><path class="cls-1" d="M139.25,55.53a.66.66,0,0,0-.67.78l.83,2.67a1.68,1.68,0,0,0,1.6,1.18h1.73c4.58,0,6.12-1.41,6.12-5.52V23a.84.84,0,0,0-.84-.84h-2.66a.84.84,0,0,0-.84.84V53A2.51,2.51,0,0,1,142,55.53Z" transform="translate(-2.2 -2.5)"/><path class="cls-1" d="M115.09,54c0,4.57,1.65,6.16,6.16,6.16h8.94a4.61,4.61,0,0,0,4.61-4.61V52.18a1.19,1.19,0,0,0-.8-1l-2.64-.4a.84.84,0,0,0-1,.83c0,.55,0,1.23,0,1.74a2.51,2.51,0,0,1-2.51,2.52h-5.74c-2.49,0-2.69-.28-2.69-2.83l0-13a.4.4,0,0,1,.4-.4h7.22a.36.36,0,0,1,.37.39v2.81h0A2.14,2.14,0,0,1,125.35,45h-1.26a1.26,1.26,0,0,0-1.26,1.26v1.64a1.26,1.26,0,0,0,1.26,1.26h3a4.61,4.61,0,0,0,4.61-4.61V37.89a2.51,2.51,0,0,0-2.51-2.51H118.35c-.38,0-.47-.21-.2-.47,0,0,.2-.19.53-.53a50.23,50.23,0,0,0,4.38-5.44.41.41,0,0,1,.61-.07L126.06,31l3.25,2.92,1.07,1,.41.36a2,2,0,0,0,2.85-.13l1.19-1.31a.85.85,0,0,0-.07-1.22l-1.31-1.13-1.11-1L129,27.61l-3-2.59a.34.34,0,0,1-.07-.42c0-.09.13-.23.23-.39a1.25,1.25,0,0,0-.47-1.78l-2.34-1.24a.84.84,0,0,0-1.13.33,53.46,53.46,0,0,1-5,7.48,50.5,50.5,0,0,1-6.24,6.11.84.84,0,0,0-.15,1.11l.94,1.37a1.79,1.79,0,0,0,2.85.36l.15-.11c.17-.13.31-.05.31.15Z" transform="translate(-2.2 -2.5)"/><path class="cls-3" d="M29.48,91.77a4,4,0,1,0,4-4,4,4,0,0,0-4,4M2.2,66.58a3.22,3.22,0,1,0,3.22-3.22A3.22,3.22,0,0,0,2.2,66.58m.63-36.05a2.59,2.59,0,1,0,2.58-2.59,2.59,2.59,0,0,0-2.58,2.59M77.89,17a1.4,1.4,0,1,0,1.4-1.4,1.4,1.4,0,0,0-1.4,1.4m2.56,72a2.63,2.63,0,0,1-.64-1.33,14.56,14.56,0,0,0,5.7-3.35,12.36,12.36,0,0,0,.37,4.58,7.15,7.15,0,0,1-3.27,1A2.8,2.8,0,0,1,80.45,89m-5.08-4.61a3.32,3.32,0,0,1-.8-1.22,12.49,12.49,0,0,0,3-1.29c-.24,1.11-.37,2.2-.51,3.29a2.77,2.77,0,0,1-1.7-.78m-5-4.74.53-.4a11.34,11.34,0,0,0,1.23-.92c-.12.67-.2,1.33-.29,2a3.22,3.22,0,0,1-1.48-.68m18.3,2.16c.92-2.83,3-4.65,3.84-4.63,1.53,0,.85,4.29-2.32,8.13a15.76,15.76,0,0,1-1.82,1.87,8.13,8.13,0,0,1,.3-5.36M81.1,79q.45-.47.88-1a22,22,0,0,0,2.56-3.84,5.75,5.75,0,0,1,3-1.81c1.53,0,.85,4.29-2.32,8.13a14.1,14.1,0,0,1-5.63,4.24A17,17,0,0,1,81.1,79m-5.2-4.63.31-.36a26.77,26.77,0,0,0,3-4.22,5.85,5.85,0,0,1,3-1.86c1.52,0,.85,4.29-2.32,8.13a12.2,12.2,0,0,1-5.64,4,16,16,0,0,1,1.61-5.73m-6.19-8.27c3.13-3.61,5.43-4.27,6.74-4.24,1.1,0,1,2.19.05,4.68a23.69,23.69,0,0,1-8.79,10.26c-1.63-2.09-.94-7.3,2-10.69M12.21,47.51A37.8,37.8,0,0,0,50,85.34c7.1,0,13-1.33,17.78-4a5.28,5.28,0,0,0,.76.83,5.59,5.59,0,0,0,3.76,1.33,5.28,5.28,0,0,0,1.52,3.1A5,5,0,0,0,77.4,88a5.1,5.1,0,0,0,1.76,3.33c1.69,1.48,4.89,1.47,8.08-.11a5.49,5.49,0,0,0,1.08.91c2.2,1.4,5.61-.48,7.8-3.93a10.25,10.25,0,0,0,.72-1.47h0a1,1,0,0,0,.09-.41A1,1,0,0,0,95,86a7,7,0,0,1-.79,1.26c-1.83,2.41-3,2.72-3.82,2.83a1.13,1.13,0,0,1-.81-.28,15.8,15.8,0,0,0,2.62-2.53c4.21-5.1,5.63-11.35,2.54-12.5a4.29,4.29,0,0,0-3.67.73c.75-2.69.42-4.87-1.29-5.51a5,5,0,0,0-3.85.53c.56-2.43.16-4.36-1.43-5a4.82,4.82,0,0,0-3.58.4c.8-2.58.71-4.89-.78-6.2-3.05-2.66-9.52-1.1-13.69,3.7C62.7,67.79,62.37,75,64.59,78.19c-4.2,2-8.12,2.49-14.2,2.49-17.17,0-33.25-14.8-33.25-33.29S32.85,14.46,49.66,14.46c9.06,0,17.6,3.18,23.63,9a2.18,2.18,0,1,0,3-3.13A37.76,37.76,0,0,0,12.21,47.51m14-39.41a2.17,2.17,0,1,0,2.16-2.17A2.17,2.17,0,0,0,26.25,8.1M55.37,4.2a1.7,1.7,0,1,0,1.7-1.7,1.7,1.7,0,0,0-1.7,1.7" transform="translate(-2.2 -2.5)"/><path class="cls-4" d="M54.1,67.22A1.5,1.5,0,0,1,53,64.66l4.57-4.57a1.09,1.09,0,0,0,0-1.54,1.11,1.11,0,0,0-1.54,0l-5.91,5.91a3.9,3.9,0,0,1-5.52-5.52l7.82-7.82a6.26,6.26,0,0,1,6-1.63l6.76,1.76-1-7.61-2.48,2.48A1.5,1.5,0,0,1,59.59,44l3.12-3.12A2.55,2.55,0,0,1,67,42.34l1.24,9.19a2.55,2.55,0,0,1-3.17,2.8L57.69,52.4a3.26,3.26,0,0,0-3.11.85l-7.82,7.82A.9.9,0,0,0,48,62.34l5.91-5.91a4.09,4.09,0,1,1,5.78,5.78l-4.57,4.57A1.49,1.49,0,0,1,54.1,67.22Z" transform="translate(-2.2 -2.5)"/><path class="cls-2" d="M229.19,72.86h-.46a.36.36,0,0,0-.36.36l0,6.7A.21.21,0,0,1,228,80l-4.57-7a.35.35,0,0,0-.3-.16h-.67a.5.5,0,0,0-.5.5v8.8a.36.36,0,0,0,.36.36h.45a.36.36,0,0,0,.36-.36l0-7.21a.07.07,0,0,1,.13,0l4.84,7.45a.35.35,0,0,0,.3.16h.68a.5.5,0,0,0,.5-.5v-8.8A.36.36,0,0,0,229.19,72.86Z" transform="translate(-2.2 -2.5)"/><path class="cls-2" d="M211.63,72.86H211a.36.36,0,0,0-.34.24l-2.44,7.23a.21.21,0,0,1-.4,0l-2.44-7.23a.36.36,0,0,0-.33-.24h-.56a.35.35,0,0,0-.29.15.35.35,0,0,0,0,.32l3.17,8.85a.5.5,0,0,0,.47.33h.49a.5.5,0,0,0,.47-.33L212,73.33a.36.36,0,0,0-.33-.48Z" transform="translate(-2.2 -2.5)"/><path class="cls-2" d="M171.28,70.37h.54a.35.35,0,0,1,.35.35v8.94a.35.35,0,0,1-.35.35h-.54a.36.36,0,0,1-.36-.36V70.73A.36.36,0,0,1,171.28,70.37Z"/><path class="cls-2" d="M194.25,72.87h-.46a.36.36,0,0,0-.36.36l0,6.7a.21.21,0,0,1-.39.12l-4.56-7a.35.35,0,0,0-.3-.16h-.67a.5.5,0,0,0-.5.5v8.8a.36.36,0,0,0,.36.36h.45a.36.36,0,0,0,.36-.36l0-7.21a.07.07,0,0,1,.05-.07.07.07,0,0,1,.08,0l4.84,7.45a.35.35,0,0,0,.3.16h.68a.5.5,0,0,0,.5-.5v-8.8A.36.36,0,0,0,194.25,72.87Z" transform="translate(-2.2 -2.5)"/><path class="cls-2" d="M142.08,82.66a4.13,4.13,0,0,0,3.26-1.33,6.25,6.25,0,0,0,0-7.28,4.13,4.13,0,0,0-3.25-1.33,4.22,4.22,0,0,0-3.3,1.3,5.31,5.31,0,0,0-1.16,3.65,5.37,5.37,0,0,0,1.16,3.67A4.19,4.19,0,0,0,142.08,82.66Zm-3.14-5a4.43,4.43,0,0,1,.81-2.86,2.87,2.87,0,0,1,2.34-1,2.82,2.82,0,0,1,2.32,1,5.65,5.65,0,0,1,0,5.76,3.28,3.28,0,0,1-4.66,0A4.47,4.47,0,0,1,138.94,77.69Z" transform="translate(-2.2 -2.5)"/><path class="cls-2" d="M270.84,77.11a7.66,7.66,0,0,1-1.31-.58,1.65,1.65,0,0,1-.59-.55,1.54,1.54,0,0,1-.17-.77,1.17,1.17,0,0,1,.47-1,2.15,2.15,0,0,1,1.33-.36,5.67,5.67,0,0,1,2,.38.36.36,0,0,0,.28,0A.35.35,0,0,0,273,74l.15-.43a.36.36,0,0,0-.2-.45,6.6,6.6,0,0,0-2.38-.42,3.51,3.51,0,0,0-2.23.67,2.19,2.19,0,0,0-.85,1.81,2.56,2.56,0,0,0,.59,1.74A4.6,4.6,0,0,0,270,78.08a9.19,9.19,0,0,1,1.4.6,1.78,1.78,0,0,1,.64.56,1.44,1.44,0,0,1,.19.77,1.3,1.3,0,0,1-.53,1.11,2.7,2.7,0,0,1-1.62.41,6.65,6.65,0,0,1-1.35-.14,7.21,7.21,0,0,1-.88-.24.37.37,0,0,0-.33,0,.35.35,0,0,0-.15.29v.46a.35.35,0,0,0,.22.33,6.73,6.73,0,0,0,2.45.37,4,4,0,0,0,2.51-.72,2.41,2.41,0,0,0,.94-2,2.33,2.33,0,0,0-.58-1.64A5.32,5.32,0,0,0,270.84,77.11Z" transform="translate(-2.2 -2.5)"/><path class="cls-2" d="M265,72.86H260.3a.36.36,0,0,0-.36.36v8.94a.36.36,0,0,0,.36.36H265a.36.36,0,0,0,.36-.36v-.42a.36.36,0,0,0-.36-.36H261.4a.21.21,0,0,1-.21-.21V78.24a.21.21,0,0,1,.21-.21h3.37a.36.36,0,0,0,.36-.36v-.41a.36.36,0,0,0-.36-.36H261.4a.21.21,0,0,1-.21-.21V74.2a.21.21,0,0,1,.21-.21H265a.36.36,0,0,0,.36-.36v-.41A.36.36,0,0,0,265,72.86Z" transform="translate(-2.2 -2.5)"/><path class="cls-2" d="M255.47,78.41a.2.2,0,0,1,0-.16.22.22,0,0,1,.12-.13,2.54,2.54,0,0,0,1.65-2.5,2.51,2.51,0,0,0-.86-2.07,4.18,4.18,0,0,0-2.63-.69h-2.32a.36.36,0,0,0-.36.36v8.94a.36.36,0,0,0,.36.36h.54a.36.36,0,0,0,.36-.36V78.77a.21.21,0,0,1,.21-.21H254a.21.21,0,0,1,.18.11l2.13,3.67a.36.36,0,0,0,.31.18h.64a.36.36,0,0,0,.3-.54Zm-3.17-4.23a.21.21,0,0,1,.21-.21h1.15a3,3,0,0,1,1.74.4,1.53,1.53,0,0,1,.53,1.3,1.67,1.67,0,0,1-.52,1.34,2.56,2.56,0,0,1-1.67.45h-1.23a.21.21,0,0,1-.21-.21Z" transform="translate(-2.2 -2.5)"/><path class="cls-2" d="M247.66,72.86h-.54a.36.36,0,0,0-.36.36v5.91a2.41,2.41,0,0,1-.63,1.79,2.47,2.47,0,0,1-1.8.62,2.56,2.56,0,0,1-1.86-.62,2.39,2.39,0,0,1-.63-1.78V73.21a.36.36,0,0,0-.36-.36H241a.36.36,0,0,0-.36.36v5.84a3.56,3.56,0,0,0,1,2.63,3.68,3.68,0,0,0,2.7,1,3.84,3.84,0,0,0,2.74-.95,3.44,3.44,0,0,0,1-2.61V73.21A.36.36,0,0,0,247.66,72.86Z" transform="translate(-2.2 -2.5)"/><path class="cls-2" d="M238.4,72.86h-6.55a.36.36,0,0,0-.36.36v.41a.36.36,0,0,0,.36.36h2.44a.21.21,0,0,1,.21.21v8a.36.36,0,0,0,.36.36h.54a.36.36,0,0,0,.36-.36v-8A.21.21,0,0,1,236,74h2.44a.36.36,0,0,0,.36-.36v-.41A.36.36,0,0,0,238.4,72.86Z" transform="translate(-2.2 -2.5)"/><path class="cls-2" d="M219,72.86h-4.72a.36.36,0,0,0-.36.36v8.94a.36.36,0,0,0,.36.36H219a.36.36,0,0,0,.36-.36v-.42a.36.36,0,0,0-.36-.36h-3.62a.21.21,0,0,1-.21-.21V78.24a.21.21,0,0,1,.21-.21h3.37a.36.36,0,0,0,.36-.36v-.41a.36.36,0,0,0-.36-.36h-3.37a.21.21,0,0,1-.21-.21V74.2a.21.21,0,0,1,.21-.21H219a.36.36,0,0,0,.36-.36v-.41A.36.36,0,0,0,219,72.86Z" transform="translate(-2.2 -2.5)"/><path class="cls-2" d="M180.9,72.72a4.21,4.21,0,0,0-3.3,1.3,5.31,5.31,0,0,0-1.16,3.65,5.37,5.37,0,0,0,1.16,3.67,4.19,4.19,0,0,0,3.29,1.31,4.14,4.14,0,0,0,3.26-1.33,6.25,6.25,0,0,0,0-7.28A4.13,4.13,0,0,0,180.9,72.72Zm3.1,5a4.54,4.54,0,0,1-.79,2.89,3.28,3.28,0,0,1-4.66,0,4.47,4.47,0,0,1-.81-2.89,4.42,4.42,0,0,1,.81-2.86,2.87,2.87,0,0,1,2.34-1,2.82,2.82,0,0,1,2.32,1A4.5,4.5,0,0,1,184,77.69Z" transform="translate(-2.2 -2.5)"/><path class="cls-2" d="M171.29,73.64v-.41a.36.36,0,0,0-.35-.36h-6.55a.36.36,0,0,0-.36.36v.41a.36.36,0,0,0,.36.36h2.44a.21.21,0,0,1,.21.21v8a.36.36,0,0,0,.36.36h.54a.36.36,0,0,0,.36-.36v-8a.21.21,0,0,1,.21-.21h2.44A.36.36,0,0,0,171.29,73.64Z" transform="translate(-2.2 -2.5)"/><path class="cls-2" d="M156.25,82.53h.51a.36.36,0,0,0,.33-.23l1-2.66a.21.21,0,0,1,.2-.14h3.42a.21.21,0,0,1,.2.14l1,2.66a.36.36,0,0,0,.33.23h.53a.36.36,0,0,0,.33-.49l-3.51-9a.35.35,0,0,0-.33-.23h-.54a.35.35,0,0,0-.33.23l-3.53,9a.36.36,0,0,0,.33.49Zm2.46-4.45,1.13-3.19a.21.21,0,0,1,.2-.14h0a.21.21,0,0,1,.2.14l1.14,3.19a.21.21,0,0,1-.2.28h-2.27a.21.21,0,0,1-.2-.28Z" transform="translate(-2.2 -2.5)"/><path class="cls-2" d="M151.48,82.53H152a.5.5,0,0,0,.47-.33l3.18-8.85a.36.36,0,0,0-.33-.48h-.58a.36.36,0,0,0-.34.24l-2.44,7.23a.21.21,0,0,1-.2.14h0a.21.21,0,0,1-.2-.14l-2.44-7.23a.36.36,0,0,0-.33-.24h-.56a.35.35,0,0,0-.29.15.36.36,0,0,0,0,.32L151,82.2A.5.5,0,0,0,151.48,82.53Z" transform="translate(-2.2 -2.5)"/><path class="cls-2" d="M128.66,82.53h.45a.36.36,0,0,0,.36-.36l0-7.21a.07.07,0,0,1,.13,0l4.84,7.45a.35.35,0,0,0,.3.16h.68a.5.5,0,0,0,.5-.5v-8.8a.36.36,0,0,0-.36-.36H135a.36.36,0,0,0-.36.36l0,6.7a.21.21,0,0,1-.39.12l-4.56-7a.35.35,0,0,0-.3-.16h-.67a.5.5,0,0,0-.5.5v8.8A.36.36,0,0,0,128.66,82.53Z" transform="translate(-2.2 -2.5)"/><rect class="cls-2" x="122.01" y="70.37" width="1.25" height="9.65" rx="0.36" ry="0.36"/><path class="cls-2" d="M118.59,82.66a4,4,0,0,0,2.51-.72,2.41,2.41,0,0,0,.94-2,2.33,2.33,0,0,0-.58-1.64,5.32,5.32,0,0,0-2.08-1.16,7.57,7.57,0,0,1-1.31-.58,1.65,1.65,0,0,1-.59-.55,1.54,1.54,0,0,1-.17-.77,1.17,1.17,0,0,1,.47-1,2.15,2.15,0,0,1,1.33-.36,5.68,5.68,0,0,1,2,.38.36.36,0,0,0,.28,0,.35.35,0,0,0,.18-.2l.15-.43a.36.36,0,0,0-.2-.45,6.61,6.61,0,0,0-2.38-.42,3.51,3.51,0,0,0-2.23.67,2.19,2.19,0,0,0-.85,1.81,2.57,2.57,0,0,0,.59,1.74,4.59,4.59,0,0,0,1.92,1.15,9.23,9.23,0,0,1,1.4.6,1.78,1.78,0,0,1,.64.56,1.44,1.44,0,0,1,.19.77,1.3,1.3,0,0,1-.53,1.11,2.69,2.69,0,0,1-1.62.41,6.62,6.62,0,0,1-1.35-.14,7.07,7.07,0,0,1-.88-.24.37.37,0,0,0-.33,0,.35.35,0,0,0-.15.29V82a.35.35,0,0,0,.22.33A6.72,6.72,0,0,0,118.59,82.66Z" transform="translate(-2.2 -2.5)"/><path class="cls-1" d="M173.76,35.82H171l1.12-5h1.07A.84.84,0,0,0,174,30V27.72a.84.84,0,0,0-.84-.84H168a.42.42,0,0,1-.39-.28c-.47-1.34-1.32-3.22-1.32-3.22a1,1,0,0,0-1.08-.53l-2.74.65a.66.66,0,0,0-.48.9s.47,1.16.83,2.2a.21.21,0,0,1-.2.28h-5.69a.84.84,0,0,0-.84.84V30a.84.84,0,0,0,.84.84h2l1,5h-3.69a.84.84,0,0,0-.84.84v2.29a.84.84,0,0,0,.84.84h6.42a.39.39,0,0,1,.39.39v2.3a.42.42,0,0,1-.42.42h-6.15a.84.84,0,0,0-.84.84v2.37a.84.84,0,0,0,.84.84h6.18a.39.39,0,0,1,.39.39l0,7.84a.84.84,0,0,1-.84.84h-2.13a.42.42,0,0,0-.41.47l.39,2.92a.84.84,0,0,0,.76.49h2.72a3.77,3.77,0,0,0,3.77-3.77V47.37a.42.42,0,0,1,.42-.42h5.39a.84.84,0,0,0,.84-.84V43.74a.84.84,0,0,0-.84-.84h-5.41a.39.39,0,0,1-.4-.39v-2.3a.42.42,0,0,1,.42-.42h6a.84.84,0,0,0,.84-.84V36.66A.84.84,0,0,0,173.76,35.82Zm-10.11,0-.93-5h5.56l-1.07,5Z" transform="translate(-2.2 -2.5)"/><path class="cls-1" d="M161.22,49.89a.63.63,0,0,0-.4-.83L159,48.43a.83.83,0,0,0-.93.46c-.28.59-.71,1.49-1.07,2.12a25,25,0,0,1-1.92,2.74.42.42,0,0,0,.12.62l1.33.8a1.56,1.56,0,0,0,1.94-.27,10.27,10.27,0,0,0,1.67-2.47C160.46,51.81,160.94,50.62,161.22,49.89Z" transform="translate(-2.2 -2.5)"/><path class="cls-1" d="M171.36,48.68a.85.85,0,0,0-1.06-.19l-1.37.78a.84.84,0,0,0-.29,1.18c.56.88,1.33,2.32,1.42,2.53a19.54,19.54,0,0,1,.75,2.06.41.41,0,0,0,.63.23l1.7-1.13a1.32,1.32,0,0,0,.48-1.5A12.69,12.69,0,0,0,171.36,48.68Z" transform="translate(-2.2 -2.5)"/></svg>